<svg width="28" height="28" viewBox="0 0 28 28" fill="none" xmlns="http://www.w3.org/2000/svg">
<rect width="28" height="28" rx="14" transform="matrix(4.43409e-08 -1 -1 -4.30908e-08 28 28)" fill="#678CF5"/>
<path d="M13.2929 7.29267C13.6834 6.90214 14.3166 6.90214 14.7071 7.29267L21.0711 13.6566C21.4616 14.0472 21.4616 14.6803 21.0711 15.0708C20.6805 15.4614 20.0474 15.4614 19.6569 15.0708L14 9.41399L8.34315 15.0708C7.95262 15.4614 7.31946 15.4614 6.92893 15.0708C6.53841 14.6803 6.53841 14.0472 6.92893 13.6566L13.2929 7.29267ZM13 19.0713L13 7.99977L15 7.99977L15 19.0713L13 19.0713Z" fill="white"/>
</svg>
