<svg width="28" height="28" viewBox="0 0 28 28" fill="none" xmlns="http://www.w3.org/2000/svg">
<rect width="28" height="28" rx="14" transform="matrix(4.43409e-08 -1 -1 -4.30908e-08 28 28)" fill="#4E70D1"/>
<path d="M14.7071 19.7786C14.3166 20.1691 13.6834 20.1691 13.2929 19.7786L6.92893 13.4147C6.53841 13.0241 6.53841 12.391 6.92893 12.0004C7.31946 11.6099 7.95262 11.6099 8.34315 12.0004L14 17.6573L19.6569 12.0004C20.0474 11.6099 20.6805 11.6099 21.0711 12.0004C21.4616 12.391 21.4616 13.0241 21.0711 13.4147L14.7071 19.7786ZM15 8L15 19.0715L13 19.0715L13 8L15 8Z" fill="white"/>
</svg>
