<svg width="16" height="14" viewBox="0 0 16 14" fill="none" xmlns="http://www.w3.org/2000/svg"><path d="M13.4244 8.59435C13.2396 8.5114 13.0295 8.50525 12.8402 8.57724C12.6509 8.64923 12.498 8.79347 12.415 8.97822C12.0404 9.81343 11.4366 10.5252 10.6737 11.031C9.91074 11.5368 9.01997 11.8157 8.10482 11.8354C7.18968 11.8552 6.28771 11.6149 5.50366 11.1425C4.71962 10.6701 4.08566 9.98503 3.67542 9.16675L4.10792 9.35931C4.29295 9.44169 4.50312 9.44719 4.69221 9.37461C4.88129 9.30203 5.0338 9.15731 5.11617 8.97228C5.19855 8.78726 5.20406 8.57708 5.13147 8.388C5.05889 8.19892 4.91417 8.04641 4.72914 7.96403L2.7193 7.06922C2.62768 7.02843 2.52893 7.00608 2.42868 7.00346C2.32843 7.00083 2.22864 7.01798 2.13502 7.05392C2.04139 7.08986 1.95576 7.14389 1.88302 7.21292C1.81027 7.28195 1.75184 7.36464 1.71105 7.45625L0.816205 9.46603C0.733826 9.65106 0.728323 9.86123 0.800905 10.0503C0.873488 10.2394 1.01821 10.3919 1.20324 10.4743C1.38826 10.5567 1.59843 10.5622 1.78752 10.4896C1.9766 10.417 2.12911 10.2723 2.21149 10.0872L2.31355 9.85803C2.84343 10.9119 3.65575 11.7979 4.65987 12.4169C5.66398 13.036 6.82037 13.3638 7.99999 13.3639C8.03689 13.3639 8.07399 13.3636 8.11096 13.3629C9.31956 13.342 10.4972 12.9774 11.5062 12.3117C12.5151 11.646 13.3136 10.7067 13.8083 9.60381C13.8913 9.41904 13.8974 9.20888 13.8254 9.01957C13.7534 8.83026 13.6092 8.6773 13.4244 8.59435Z" fill="#8BC33E"/><path d="M14.7968 3.52571C14.6118 3.44334 14.4016 3.43784 14.2126 3.51042C14.0235 3.58301 13.871 3.72772 13.7886 3.91275L13.6865 4.14197C13.148 3.07086 12.318 2.1736 11.292 1.55349C10.266 0.933389 9.08568 0.615648 7.88702 0.636853C6.68835 0.658058 5.52005 1.01735 4.51661 1.67336C3.51316 2.32936 2.71538 3.25542 2.21512 4.3449C2.1731 4.43604 2.14946 4.53456 2.14554 4.63484C2.14162 4.73512 2.15751 4.83518 2.19229 4.92932C2.22707 5.02345 2.28007 5.10981 2.34825 5.18345C2.41643 5.25709 2.49845 5.31657 2.58963 5.35848C2.68081 5.4004 2.77936 5.42394 2.87964 5.42775C2.97992 5.43155 3.07997 5.41556 3.17407 5.38067C3.26817 5.34579 3.35446 5.2927 3.42803 5.22444C3.50159 5.15619 3.56099 5.0741 3.6028 4.98287C3.98322 4.15431 4.59001 3.4501 5.35324 2.95139C6.11647 2.45269 7.00509 2.1798 7.91667 2.16416C8.82825 2.14852 9.7257 2.39077 10.5056 2.863C11.2855 3.33523 11.9161 4.01822 12.3247 4.83325L11.8922 4.64068C11.7074 4.55956 11.4979 4.5549 11.3097 4.62774C11.1214 4.70057 10.9697 4.84497 10.8876 5.02936C10.8055 5.21376 10.7997 5.42316 10.8716 5.61179C10.9434 5.80041 11.087 5.95293 11.271 6.036L13.275 6.92812L13.2786 6.92975C13.3703 6.97089 13.4692 6.99355 13.5696 6.99641C13.67 6.99927 13.77 6.98229 13.8639 6.94643C13.9577 6.91057 14.0436 6.85654 14.1165 6.78744C14.1894 6.71834 14.248 6.63553 14.2889 6.54375L15.1837 4.53397C15.2661 4.34896 15.2717 4.13879 15.1991 3.94971C15.1265 3.76063 14.9818 3.60812 14.7968 3.52571Z" fill="#8BC33E"/></svg>
