<svg width="19" height="20" viewBox="0 0 19 20" fill="none" xmlns="http://www.w3.org/2000/svg">
<path d="M10.6875 1.61058V1.15385C10.6875 0.847827 10.5624 0.554342 10.3397 0.337954C10.117 0.121566 9.81495 0 9.5 0C9.18506 0 8.88301 0.121566 8.66031 0.337954C8.43761 0.554342 8.3125 0.847827 8.3125 1.15385V1.61058C6.81291 1.7935 5.38033 2.32322 4.13498 3.15529L3.61198 2.64423C3.3889 2.42747 3.08633 2.30569 2.77084 2.30569C2.45535 2.30569 2.15278 2.42747 1.92969 2.64423C1.70661 2.86099 1.58128 3.15499 1.58128 3.46154C1.58128 3.76809 1.70661 4.06208 1.92969 4.27885L2.35521 4.69231C0.835312 6.37202 -0.00206063 8.53262 3.80812e-06 10.7692C3.80812e-06 15.8591 4.26164 20 9.5 20C14.7384 20 19 15.8591 19 10.7692C19 6.07019 15.3672 2.17981 10.6875 1.61058ZM9.5 13.0769C8.93987 13.0768 8.39782 12.8843 7.96961 12.5334C7.54141 12.1825 7.25461 11.6959 7.15989 11.1595C7.06516 10.6231 7.16861 10.0714 7.45195 9.60189C7.73529 9.1324 8.18029 8.77532 8.70833 8.59375V5C8.70833 4.79599 8.79174 4.60033 8.94021 4.45607C9.08868 4.31181 9.29004 4.23077 9.5 4.23077C9.70996 4.23077 9.91133 4.31181 10.0598 4.45607C10.2083 4.60033 10.2917 4.79599 10.2917 5V8.59375C10.8197 8.77532 11.2647 9.1324 11.5481 9.60189C11.8314 10.0714 11.9348 10.6231 11.8401 11.1595C11.7454 11.6959 11.4586 12.1825 11.0304 12.5334C10.6022 12.8843 10.0601 13.0768 9.5 13.0769Z" fill="#678CF5"/>
</svg>
