<svg width="18" height="20" viewBox="0 0 18 20" fill="none" xmlns="http://www.w3.org/2000/svg">
<path d="M10.125 1.86306V1.42916C10.125 1.13844 10.0065 0.859633 9.7955 0.654064C9.58452 0.448495 9.29837 0.333008 9 0.333008C8.70163 0.333008 8.41548 0.448495 8.20451 0.654064C7.99353 0.859633 7.875 1.13844 7.875 1.42916V1.86306C6.45433 2.03683 5.09716 2.54006 3.91735 3.33053L3.42188 2.84503C3.21053 2.6391 2.92389 2.52341 2.625 2.52341C2.32612 2.52341 2.03947 2.6391 1.82813 2.84503C1.61678 3.05095 1.49805 3.33025 1.49805 3.62147C1.49805 3.91269 1.61678 4.19199 1.82813 4.39791L2.23125 4.7907C0.791348 6.38643 -0.00195218 8.43899 3.6077e-06 10.5638C3.6077e-06 15.3992 4.03735 19.333 9 19.333C13.9627 19.333 18 15.3992 18 10.5638C18 6.09969 14.5584 2.40383 10.125 1.86306ZM9 12.7561C8.46935 12.7559 7.95583 12.573 7.55016 12.2397C7.14449 11.9064 6.87279 11.4441 6.78305 10.9345C6.69331 10.4249 6.79131 9.90082 7.05974 9.4548C7.32817 9.00879 7.74975 8.66957 8.25 8.49707V5.08301C8.25 4.8892 8.32902 4.70332 8.46967 4.56628C8.61032 4.42923 8.80109 4.35224 9 4.35224C9.19891 4.35224 9.38968 4.42923 9.53033 4.56628C9.67098 4.70332 9.75 4.8892 9.75 5.08301V8.49707C10.2503 8.66957 10.6718 9.00879 10.9403 9.4548C11.2087 9.90082 11.3067 10.4249 11.217 10.9345C11.1272 11.4441 10.8555 11.9064 10.4498 12.2397C10.0442 12.573 9.53065 12.7559 9 12.7561V12.7561Z" fill="#A1A1A1"/>
</svg>
