<svg width="16" height="16" viewBox="0 0 16 16" fill="none" xmlns="http://www.w3.org/2000/svg">
<path d="M0.847234 8.18717C1.21403 8.18717 1.51384 7.8864 1.51384 7.51843C1.51384 7.144 1.21403 6.84969 0.847234 6.84969H0.0864944C0.61281 3.17942 3.61606 0.307427 7.33359 0V0.635141C7.33359 1.00311 7.6334 1.30388 8.0002 1.30388C8.367 1.30388 8.66681 1.00311 8.66681 0.635141V0C12.3846 0.307256 15.3876 3.17913 15.9139 6.84798H15.1532C14.7864 6.84798 14.4866 7.1424 14.4866 7.51672C14.4866 7.88469 14.7864 8.18546 15.1532 8.18546H16C15.9012 12.304 12.7114 15.6654 8.66661 16V14.9952C8.66661 14.6208 8.3668 14.3265 8 14.3265C7.6332 14.3265 7.33339 14.6209 7.33339 14.9952V16C3.28862 15.6656 0.0988264 12.304 0 8.18717H0.847234ZM5.3306 8.66874H8.0004C8.3672 8.66874 8.66701 8.36797 8.66701 8V3.31373C8.66701 2.94576 8.3672 2.64499 8.0004 2.64499C7.6336 2.64499 7.33379 2.94576 7.33379 3.31373V7.32972H5.33217C4.96537 7.32972 4.66556 7.63049 4.66556 7.99846C4.66544 8.36654 4.96369 8.66874 5.3306 8.66874Z" fill="white"/>
</svg>
