<svg width="15" height="15" viewBox="0 0 15 15" fill="none" xmlns="http://www.w3.org/2000/svg">
<path fill-rule="evenodd" clip-rule="evenodd" d="M5.75824 9.24313C6.69158 10.1765 7.71686 10.9276 8.76482 11.4798L10.7311 9.4741L14.3065 10.2985C14.6783 10.3849 15.0012 10.6103 15.0012 10.9915V13.4703C15.0012 14.2665 14.3871 14.9238 13.5928 14.9783C10.4793 15.1943 6.88288 13.7933 4.04531 10.9559C1.20598 8.11648 -0.191145 4.52002 0.0210281 1.40847C0.0755336 0.614123 0.732732 0 1.52905 0H4.00787C4.38905 0 4.61629 0.321063 4.70266 0.692908L5.52711 4.27022L3.52156 6.23658C4.07372 7.28254 4.82487 8.30798 5.75821 9.24316L5.75824 9.24313Z" fill="white"/>
</svg>
