<svg width="17" height="17" viewBox="0 0 17 17" fill="none" xmlns="http://www.w3.org/2000/svg">
<g clip-path="url(#clip0_290_5413)">
<path d="M16.5275 13.3674L16.4457 13.121C16.2519 12.5452 15.617 11.9447 15.0337 11.7865L12.8748 11.1968C12.2894 11.0375 11.4542 11.2517 11.0259 11.68L10.2446 12.4613C7.40503 11.694 5.17838 9.4673 4.41213 6.62831L5.1935 5.84694C5.62185 5.4186 5.83598 4.58457 5.67671 3.99912L5.08802 1.83919C4.92874 1.2548 4.32714 0.619865 3.75247 0.428285L3.50603 0.345426C2.93025 0.153846 2.10911 0.347596 1.6808 0.775905L0.512032 1.94574C0.303232 2.15344 0.169784 2.7475 0.169784 2.74967C0.128906 6.46039 1.58392 10.0355 4.20874 12.6603C6.82712 15.2787 10.3888 16.7316 14.0888 16.7004C14.1081 16.7004 14.7194 16.5691 14.9282 16.3614L16.097 15.1926C16.5253 14.7643 16.719 13.9432 16.5275 13.3674Z" fill="white"/>
</g>
<defs>
<clipPath id="clip0_290_5413">
<rect width="16.4324" height="16.4324" fill="white" transform="translate(0.168945 0.269531)"/>
</clipPath>
</defs>
</svg>