<svg width="28" height="29" viewBox="0 0 28 29" fill="none" xmlns="http://www.w3.org/2000/svg">
<rect width="28" height="28" rx="14" transform="matrix(4.43409e-08 -1 -1 -4.30908e-08 28 28.8989)" fill="#678CF5"/>
<path d="M14.1895 7.89895C13.281 7.89642 12.3879 8.13315 11.5999 8.58523C10.8119 9.03732 10.1568 9.68886 9.70038 10.4743C9.24408 11.2599 9.00251 12.1516 9 13.0601C9 15.9121 12.8923 22.5239 14.1895 22.5239C15.4868 22.5239 19.379 15.9121 19.379 13.0601C19.3765 12.1516 19.1349 11.2599 18.6786 10.4743C18.2222 9.68883 17.5671 9.0373 16.7791 8.58523C15.9911 8.13313 15.098 7.89641 14.1895 7.89895ZM14.1895 14.6736C13.6477 14.6736 13.1281 14.4584 12.745 14.0753C12.3619 13.6922 12.1468 13.1726 12.1468 12.6308C12.1468 12.0891 12.3619 11.5695 12.745 11.1864C13.1281 10.8033 13.6477 10.5881 14.1895 10.5881C14.7313 10.5881 15.2509 10.8033 15.634 11.1864C16.0171 11.5695 16.2322 12.0891 16.2322 12.6308C16.2322 13.1726 16.0171 13.6922 15.634 14.0753C15.2509 14.4584 14.7313 14.6736 14.1895 14.6736Z" fill="white"/>
</svg>
