<svg width="10" height="15" viewBox="0 0 10 15" fill="none" xmlns="http://www.w3.org/2000/svg">
<path d="M5 2.06498e-05C4.1247 -0.00257152 3.26421 0.240228 2.50496 0.703901C1.74574 1.16759 1.11455 1.83583 0.674805 2.64143C0.235169 3.44717 0.00241558 4.36177 0 5.29354C0 8.21861 3.75013 15 5 15C6.24987 15 10 8.21861 10 5.29354C9.99756 4.36177 9.76481 3.44717 9.3252 2.64143C8.88546 1.8358 8.25429 1.16756 7.49504 0.703901C6.73582 0.240214 5.87532 -0.00257843 5 2.06498e-05V2.06498e-05ZM5 6.94841C4.47797 6.94841 3.97738 6.72764 3.60826 6.33472C3.23914 5.94179 3.03187 5.4089 3.03187 4.85319C3.03187 4.2976 3.23916 3.7647 3.60826 3.37177C3.97738 2.97884 4.47797 2.75809 5 2.75809C5.52203 2.75809 6.02262 2.97885 6.39174 3.37177C6.76086 3.7647 6.96813 4.2976 6.96813 4.85319C6.96813 5.4089 6.76084 5.94179 6.39174 6.33472C6.02262 6.72766 5.52203 6.94841 5 6.94841Z" fill="white"/>
</svg>
