<svg width="7" height="9" viewBox="0 0 7 9" fill="none" xmlns="http://www.w3.org/2000/svg">
<path d="M2.64823 5.327C2.64823 4.94567 2.73256 4.63033 2.90123 4.381C3.07723 4.13167 3.33023 3.85667 3.66023 3.556C3.90223 3.336 4.07823 3.15267 4.18823 3.006C4.30556 2.852 4.36423 2.67967 4.36423 2.489C4.36423 2.21767 4.25423 2.005 4.03423 1.851C3.82156 1.68967 3.53556 1.609 3.17623 1.609C2.83156 1.609 2.52356 1.68233 2.25223 1.829C1.98823 1.96833 1.76456 2.16633 1.58123 2.423L0.25023 1.642C0.55823 1.17267 0.972564 0.809666 1.49323 0.552999C2.02123 0.296333 2.64456 0.168 3.36323 0.168C4.20656 0.168 4.88123 0.347666 5.38723 0.706999C5.90056 1.06633 6.15723 1.565 6.15723 2.203C6.15723 2.50367 6.1059 2.76767 6.00323 2.995C5.9079 3.22233 5.7869 3.41667 5.64023 3.578C5.5009 3.732 5.31756 3.91167 5.09023 4.117C4.8189 4.359 4.6209 4.56433 4.49623 4.733C4.37156 4.89433 4.30923 5.09233 4.30923 5.327H2.64823ZM3.48423 8.088C3.18356 8.088 2.93056 7.99267 2.72523 7.802C2.52723 7.604 2.42823 7.36567 2.42823 7.087C2.42823 6.80833 2.52723 6.57733 2.72523 6.394C2.92323 6.20333 3.17623 6.108 3.48423 6.108C3.79223 6.108 4.04523 6.20333 4.24323 6.394C4.44123 6.57733 4.54023 6.80833 4.54023 7.087C4.54023 7.36567 4.43756 7.604 4.23223 7.802C4.03423 7.99267 3.7849 8.088 3.48423 8.088Z" fill="white"/>
</svg>
