<svg width="34" height="28" viewBox="0 0 34 28" fill="none" xmlns="http://www.w3.org/2000/svg">
<path opacity="0.2" d="M13.1769 0.523073V6.53076C10.9769 6.81281 9.34103 7.63076 8.26923 8.98461C7.25385 10.3385 6.74615 11.9744 6.74615 13.8923H13.8538V27.0923H0.484616V14.9077C0.484616 10.7333 1.64103 7.40513 3.95385 4.92307C6.26667 2.38461 9.34103 0.917943 13.1769 0.523073ZM32.7231 0.523073V6.53076C30.5231 6.81281 28.8872 7.63076 27.8154 8.98461C26.7436 10.3385 26.2077 11.9744 26.2077 13.8923H33.3154V27.0923H20.0308V14.9077C20.0308 10.7333 21.159 7.40513 23.4154 4.92307C25.7282 2.38461 28.8308 0.917943 32.7231 0.523073Z" fill="#36302E"/>
</svg>
