<svg width="19" height="15" viewBox="0 0 19 15" fill="none" xmlns="http://www.w3.org/2000/svg">
<path d="M7.34536 0V3.39172C6.07216 3.55095 5.12543 4.01274 4.50515 4.77707C3.91753 5.5414 3.62371 6.46497 3.62371 7.54777H7.73711V15H0V8.12102C0 5.76433 0.669244 3.88535 2.00773 2.48408C3.34622 1.05095 5.12543 0.222929 7.34536 0ZM18.6572 0V3.39172C17.384 3.55095 16.4373 4.01274 15.817 4.77707C15.1967 5.5414 14.8866 6.46497 14.8866 7.54777H19V15H11.3119V8.12102C11.3119 5.76433 11.9648 3.88535 13.2706 2.48408C14.6091 1.05095 16.4046 0.222929 18.6572 0Z" fill="white"/>
</svg>
